<svg id="Layer_1" data-name="Layer 1" xmlns="http://www.w3.org/2000/svg" viewBox="0 0 500 500"><defs><style>.cls-1{fill:#434444;}.cls-2{fill:#fff;}.cls-3{fill:#201d1e;}.cls-4{fill:#d1d2d2;}.cls-5{fill:#1475b7;}.cls-6{fill:#014f7d;}</style></defs><title>cs department logo</title><path class="cls-1" d="M225.54,468.86c-26-20.27-48.06-47.31-63.87-78.19a268,268,0,0,1-28.2-101.49V179.34L250.19,135.4l117.22,44.5v100a146.73,146.73,0,0,1-1.3,19.5l-.33,2.47c-9.94,74.35-48.18,139.49-104.92,178.72l-10.73,7.43Z"/><path class="cls-2" d="M250.19,137l115.72,43.93v99a145,145,0,0,1-1.28,19.3l-.33,2.48c-9.86,73.75-48,138.79-104.29,177.69l-9.83,6.8-23.72-18.52C200.18,447.15,178.64,420.51,163,390a264.67,264.67,0,0,1-28-100.92V180.38L250.19,137m0-3.21-1.06.4L133.91,177.57l-1.94.73v111a269.49,269.49,0,0,0,28.36,102.06c15.91,31.07,38.14,58.28,64.29,78.68l23.72,18.52,1.74,1.36,1.81-1.26,9.83-6.8c28.35-19.61,52-45.42,70.42-76.72a274.09,274.09,0,0,0,35.13-103l.33-2.48a148.42,148.42,0,0,0,1.31-19.7V178.86l-1.94-.73L251.25,134.2l-1.06-.4Z"/><path class="cls-3" d="M250.19,137V486.19l-23.72-18.52C200.18,447.15,178.64,420.51,163,390a264.67,264.67,0,0,1-28-100.92V180.38Z"/><path class="cls-2" d="M356.21,191.91v90.73A133,133,0,0,1,355,300.22l-.31,2.32c-9,67.56-44,127.13-95.53,162.77l-9,6.22V151.67Z"/><path class="cls-4" d="M250.21,151.67V471.53l-21.73-17c-24.08-18.81-43.81-43.21-58.13-71.17A242.38,242.38,0,0,1,144.65,291V191.39Z"/><path class="cls-5" d="M250.23,168.27l-94.6,35.6V293.1h0c4.4,59.13,32,112.93,75.13,146.63l19.47,15.2,8.07-5.58c46.18-31.93,77.51-85.33,85.61-145.87l.25-1.89a121.83,121.83,0,0,0,1.07-16.14V204.33Z"/><path class="cls-6" d="M250.23,168.27V454.93l-19.47-15.2C187.6,406,160,352.23,155.64,293.11V203.87Z"/><polygon class="cls-2" points="235.25 230.5 188.22 243.17 173.66 258.8 173.66 333.56 220.32 346.66 235.25 334.41 235.25 312.87 212.86 310.75 212.86 323.43 194.94 320.47 194.94 260.49 212.86 257.95 212.86 277.81 235.25 276.54 235.25 230.5"/><polygon class="cls-2" points="263.25 230.92 263.25 279.92 297.6 305.69 297.6 321.74 284.28 323.71 284.28 310.47 262.38 313.29 262.38 350.46 320.62 332.72 320.62 296.39 285.77 272.18 285.77 258.1 299.46 260.91 299.46 271.33 319.37 273.58 319.37 247.96 263.25 230.92"/><polygon class="cls-3" points="250.18 134.53 230.54 141.78 223.63 41.59 250.19 11.54 276.36 41.16 269.46 141.8 250.18 134.53"/><path class="cls-2" d="M250.19,13.81l24.64,27.88-6.72,98-17.92-6.76-18.29,6.76-6.72-97.57,25-28.3m0-4.53-2.25,2.54-25,28.3-.83.94.09,1.25,6.72,97.57.28,4,3.76-1.39,17.24-6.37L267,142.49l3.78,1.42.28-4,6.72-98,.09-1.25-.83-.94L252.43,11.82l-2.25-2.54Z"/><polygon class="cls-3" points="180.41 72.25 198.28 42.67 224.76 64.16 230.21 142.09 197.7 154.32 180.41 72.25"/><path class="cls-2" d="M198.67,44.92l24.64,20,5.32,76.16L198.8,152.3,182,72.52l16.67-27.6m-.79-4.5-1.78,2.95L179.43,71l-.61,1,.24,1.16,16.81,79.78.72,3.42,3.27-1.23,29.83-11.23,2.09-.79-.16-2.23L226.3,64.71l-.09-1.3-1-.82-24.64-20-2.68-2.17Z"/><polygon class="cls-3" points="140.55 96.1 154.99 66.18 180.84 81.42 196.17 154.85 166.53 166.06 140.55 96.1"/><path class="cls-2" d="M155.64,68.3l23.87,14.08,14.93,71.53-27,10.22L142.18,96.17,155.64,68.3m-1.28-4.24L152.93,67,139.48,94.87,138.92,96l.44,1.2,25.23,67.95,1.05,2.83,2.82-1.07,27-10.22,2.4-.91-.52-2.51L182.45,81.76l-.27-1.3L181,79.79,157.16,65.71l-2.81-1.66Z"/><polygon class="cls-3" points="109.7 126.47 118.3 97.91 143.35 106.54 164.96 166.65 136.96 177.18 109.7 126.47"/><path class="cls-2" d="M119.28,99.84l22.9,7.88,20.87,58-25.39,9.56-26.34-49,8-26.47m-2-3.85-.9,3-8,26.47-.36,1.19.59,1.09,26.34,49,1.24,2.31,2.46-.92,25.39-9.56,2.77-1-1-2.78-20.87-58-.49-1.35-1.36-.47L120.26,97l-3-1Z"/><polygon class="cls-3" points="269.64 142.09 275.09 64.16 301.57 42.67 319.44 72.25 302.15 154.32 269.64 142.09"/><path class="cls-2" d="M301.18,44.92l16.67,27.6L301,152.3l-29.83-11.23,5.32-76.16,24.64-20m.79-4.5-2.68,2.17-24.64,20-1,.82-.09,1.3-5.32,76.16-.16,2.23,2.09.79L300,155.11l3.27,1.23.72-3.42,16.81-79.78L321,72l-.61-1-16.67-27.6L302,40.42Z"/><polygon class="cls-3" points="303.68 154.85 319.01 81.42 344.86 66.18 359.3 96.1 333.32 166.06 303.68 154.85"/><path class="cls-2" d="M344.21,68.3l13.46,27.88-25.23,67.95-27-10.22,14.93-71.53L344.21,68.3m1.28-4.24-2.81,1.66L318.82,79.79l-1.14.67-.27,1.3-14.93,71.53-.52,2.51,2.4.91,27,10.22L334.2,168l1.05-2.83,25.23-67.95.44-1.2-.56-1.15L346.91,67l-1.42-2.94Z"/><polygon class="cls-3" points="334.89 166.65 356.5 106.54 381.55 97.91 390.14 126.47 362.89 177.18 334.89 166.65"/><path class="cls-2" d="M380.57,99.84l8,26.47-26.34,49-25.39-9.56,20.87-58,22.9-7.88m2-3.85-3,1-22.9,7.88-1.36.47-.49,1.35-20.87,58-1,2.78,2.77,1,25.39,9.56,2.46.92,1.24-2.31,26.34-49,.59-1.09-.36-1.19-8-26.47-.9-3Z"/><path class="cls-3" d="M90.13,350.79a21.18,21.18,0,0,1-2.87-.14h0c-1.64,0-3.85-.92-6-1.86l-.78-.34c-1.13-.46-4.39-2.49-5-4.35a10.31,10.31,0,0,1,0-6.09,10.59,10.59,0,0,1,3.65-4.61,25.8,25.8,0,0,1,6.7-3.42,18.72,18.72,0,0,1,5.88-.93h1.85a24.13,24.13,0,0,1,9.79,2.08l2.62,1.15c2.53,1.25,9.53,4.5,12.2,4.77a9.49,9.49,0,0,0,1,.05,9.59,9.59,0,0,0,4.22-1l2.22-1.23V346l-1.23.23c-.14,0-3.5.64-6,1-.81.12-2,.26-3.24.41-2.5.3-5.62.67-6.93,1-2.12.55-12.33,1.8-13.49,1.94-.18,0-2.46.16-4.62.16Z"/><path class="cls-2" d="M93.57,330.54a22.72,22.72,0,0,1,9.19,2l2.62,1.15s9.13,4.53,12.65,4.89a11.1,11.1,0,0,0,1.14.06,10.91,10.91,0,0,0,4.95-1.15v7.34s-3.44.63-5.93,1-8.25.91-10.33,1.45-13.29,1.91-13.29,1.91-2.3.14-4.43.14a19.17,19.17,0,0,1-2.78-.15h-.14c-1.8,0-5.1-1.65-6.19-2.09s-3.76-2.27-4.16-3.44a8.9,8.9,0,0,1,0-5,9.12,9.12,0,0,1,3.2-4,24.22,24.22,0,0,1,6.24-3.17,17.2,17.2,0,0,1,5.41-.86h1.85m0-3H91.72a20.2,20.2,0,0,0-6.35,1,27.06,27.06,0,0,0-7.16,3.67,12.15,12.15,0,0,0-4.1,5.2,11.74,11.74,0,0,0-.09,7.17c.93,2.73,5.14,5,5.88,5.26l.73.32c2.25,1,4.6,2,6.52,2a23.65,23.65,0,0,0,3,.15c2.2,0,4.52-.14,4.62-.15h.17c1.91-.23,11.52-1.42,13.69-2,1.21-.32,4.4-.69,6.73-1,1.25-.15,2.44-.29,3.28-.41,2.51-.37,5.89-1,6-1l2.46-.45v-15l-4.48,2.53h0a8.3,8.3,0,0,1-4.3.71c-2.05-.21-8-2.81-11.63-4.6l-.06,0-.06,0L104,329.75a25.61,25.61,0,0,0-10.4-2.21Z"/><path class="cls-3" d="M410,350.79c-2.15,0-4.43-.14-4.53-.15-1.25-.15-11.46-1.4-13.58-2-1.31-.34-4.42-.71-6.93-1-1.27-.15-2.43-.29-3.24-.41-2.48-.36-5.84-1-6-1L374.5,346V334.88l2.24,1.27a9.74,9.74,0,0,0,5.19.9c2.67-.27,9.67-3.52,12.14-4.75l2.68-1.18a24.13,24.13,0,0,1,9.79-2.08h1.85a18.72,18.72,0,0,1,5.88.93,25.8,25.8,0,0,1,6.7,3.42,10.59,10.59,0,0,1,3.65,4.61,10.31,10.31,0,0,1,0,6.09c-.63,1.86-3.89,3.89-5,4.35l-.78.34c-2.12.94-4.33,1.86-6,1.86h0A21.19,21.19,0,0,1,410,350.79Z"/><path class="cls-2" d="M408.39,330.54a17.2,17.2,0,0,1,5.41.86,24.22,24.22,0,0,1,6.24,3.17,9.12,9.12,0,0,1,3.2,4,8.9,8.9,0,0,1,0,5c-.4,1.18-3,3-4.16,3.44s-4.39,2.09-6.19,2.09h-.14a19.17,19.17,0,0,1-2.78.15c-2.13,0-4.43-.14-4.43-.14s-11.21-1.36-13.29-1.91-7.85-1.09-10.33-1.45-5.93-1-5.93-1v-7.34a10.91,10.91,0,0,0,4.95,1.15,11.1,11.1,0,0,0,1.14-.06c3.52-.36,12.65-4.89,12.65-4.89l2.62-1.15a22.71,22.71,0,0,1,9.19-2h1.85m0-3h-1.85a25.61,25.61,0,0,0-10.4,2.21l-2.62,1.15-.06,0-.06,0c-3.59,1.78-9.57,4.38-11.63,4.6a8.28,8.28,0,0,1-4.33-.73L373,332.29l0,5.16v9.84l2.46.45c.14,0,3.53.65,6,1,.84.12,2,.26,3.28.41,2.33.28,5.52.66,6.73,1,2.17.57,11.78,1.75,13.69,2h.17c.1,0,2.42.15,4.62.15a23.65,23.65,0,0,0,3-.15c1.92,0,4.27-1,6.52-2l.73-.32c.74-.3,5-2.53,5.88-5.26a11.74,11.74,0,0,0-.09-7.17,12.15,12.15,0,0,0-4.1-5.2,27.07,27.07,0,0,0-7.16-3.67,20.2,20.2,0,0,0-6.35-1Z"/><path class="cls-3" d="M409.62,468.15a31.66,31.66,0,0,1-6.36-.57c-5.1-1.08-37.75-9.44-39.14-9.8l-40.31-9-26-4.24a181.28,181.28,0,0,0-18.9-2.07l-14.55-.82c-4.72-.27-9.51-.4-14.23-.4s-9.51.13-14.23.4l-14.55.82a181.73,181.73,0,0,0-18.89,2.07l-26.07,4.25-40.27,9c-1.34.34-34,8.71-39.09,9.79a31.59,31.59,0,0,1-6.36.57c-4.16,0-8.27-.58-10-1.41a7.69,7.69,0,0,1-4.63-5.28c-.69-2.33.1-10.85.27-12.53l3.2-24.25.15-6a159.11,159.11,0,0,0-3.62-38l0-.1C74.42,373.2,75,347,75,345.94l.08-3.58,2.5,2.57c.05.05,5.47,5.52,11.78,5.52,6.84,0,29.15-3.69,29.38-3.72l27.39-4.59,51.93-8.92c6.17-1.06,12.46-1.87,18.69-2.4l25.46-2.17c2.63-.22,5.31-.34,7.95-.34s5.31.11,7.95.34l25.46,2.17c6.24.53,12.53,1.34,18.69,2.4l51.93,8.92,34.59,5.8c.15,0,15.33,2.52,22.17,2.52,6.26,0,11-5.24,11.07-5.3l2.44-2.73.17,3.66c.05,1.1,1.25,27.1-.38,34.46l0,.1a156.23,156.23,0,0,0-3.63,37.69l.16,6.35,3.19,24.2c.17,1.73,1,10.25.27,12.58a7.69,7.69,0,0,1-4.63,5.27c-1.72.83-5.82,1.41-10,1.41Z"/><path class="cls-2" d="M250.15,329.81q3.91,0,7.82.33l25.46,2.17q9.32.79,18.57,2.38l51.93,8.92,34.59,5.8S403.89,352,410.94,352s12.19-5.8,12.19-5.8,1.26,26.82-.34,34.07l0,.1a157.69,157.69,0,0,0-3.66,38l.16,6.43,3.2,24.28s1,9.79.32,12a6.2,6.2,0,0,1-3.84,4.35c-1.46.71-5.37,1.26-9.33,1.26a30.18,30.18,0,0,1-6-.54c-5.12-1.09-39.08-9.79-39.08-9.79l-40.36-9.06L298.07,443A182.3,182.3,0,0,0,279,440.93l-14.55-.82q-7.15-.4-14.31-.4t-14.31.4l-14.55.82A182.29,182.29,0,0,0,202.23,443l-26.07,4.25-40.36,9.06s-34,8.7-39.08,9.79a30.18,30.18,0,0,1-6,.54c-4,0-7.87-.55-9.33-1.26A6.2,6.2,0,0,1,77.51,461c-.64-2.17.32-12,.32-12L81,424.8l.15-6.09a160.53,160.53,0,0,0-3.65-38.39l0-.1c-1.6-7.25-1-34.25-1-34.25s5.81,6,12.85,6S119,348.21,119,348.21l27.39-4.59,51.93-8.92q9.24-1.59,18.57-2.38l25.46-2.17q3.9-.33,7.82-.33m0-3c-2.68,0-5.4.12-8.07.34l-25.46,2.17c-6.27.53-12.6,1.35-18.82,2.41l-51.93,8.92-27.38,4.59c-.22,0-22.41,3.7-29.13,3.7-5.66,0-10.66-5-10.71-5.08l-5-5.07-.16,7.1c0,1.12-.59,27.45,1.07,35l0,.1a157.53,157.53,0,0,1,3.59,37.67L78,424.56l-3.18,24.12v.1c-.31,3.12-.94,10.63-.21,13.1a9.12,9.12,0,0,0,5.41,6.2c2.23,1.08,6.95,1.56,10.64,1.56a33.07,33.07,0,0,0,6.67-.6c5.08-1.08,37.24-9.31,39.15-9.8l40.23-9,26-4.24a180,180,0,0,1,18.74-2.05L236,443.1c4.69-.27,9.45-.4,14.15-.4s9.46.13,14.15.4l14.55.82A180.06,180.06,0,0,1,297.59,446l26,4.24,40.23,9c1.91.49,34.07,8.72,39.15,9.8a33.07,33.07,0,0,0,6.67.6c3.69,0,8.41-.48,10.64-1.56a9.12,9.12,0,0,0,5.41-6.2c.73-2.47.09-10-.21-13.1v-.1l-3.18-24.12-.16-6.27A154.68,154.68,0,0,1,425.7,381l0-.1c1.64-7.43.54-32.07.41-34.86l-.35-7.36-4.89,5.51s-4.39,4.79-10,4.79c-6.72,0-21.78-2.47-21.93-2.5l-34.58-5.8-51.92-8.92c-6.22-1.07-12.55-1.88-18.82-2.41l-25.46-2.17c-2.67-.23-5.39-.34-8.07-.34Z"/><path class="cls-2" d="M102,387.63c.6,2.84,1.11,5.19,1.5,6.39.27.83.57,1.44,1.44,1.33a12.93,12.93,0,0,0,1.29-.22c.17,0,.24,0,.26.12s-.09.27-.4.36c-1.55.41-3.33.8-3.47.84s-1.89.61-2.73.84c-.31.09-.46.07-.5-.11s0-.2.19-.24a4.77,4.77,0,0,0,.82-.35c.53-.28.54-1,.47-1.85-.11-1.27-.63-3.62-1.24-6.46L97,375.76,92.7,377c-1.79.54-2.43.94-2.73,1.79a5.29,5.29,0,0,0-.28,1.06c0,.25-.11.34-.22.38s-.16,0-.2-.22-.07-3-.06-3.25,0-.61.16-.64a6.24,6.24,0,0,0,1.35,0c.84-.16,2-.4,2.32-.5,4.34-1.22,6.52-1.81,10.88-2.95a14,14,0,0,0,2-.68c.41-.18.67-.33.78-.36s.18.14.22.32c.18.89.5,3,.56,3.29s0,.41-.13.44-.22,0-.33-.45l-.09-.32c-.26-.87-1.1-1.38-3.89-.71l-3.66.91Z"/><path class="cls-2" d="M130,382.19c.41,2.45.78,4.46,1.07,5.47.21.73.36,1.19,1.13,1.15a10.38,10.38,0,0,0,1.12-.12.2.2,0,0,1,.26.16c0,.12-.11.24-.39.3-1.36.29-3,.54-3.1.57s-1.71.47-2.44.63c-.28.06-.41,0-.43-.12a.22.22,0,0,1,.16-.26,3.36,3.36,0,0,0,.71-.28c.49-.23.49-.76.44-1.53-.06-1.07-.4-3-.82-5.44l-.44-2.54c0-.12-.08-.14-.17-.12-4.21.93-6.31,1.41-10.51,2.42-.09,0-.14.06-.12.19l.48,2.53c.46,2.44.82,4.38,1.13,5.39.22.73.4,1.18,1.16,1.12a10,10,0,0,0,1.15-.15.19.19,0,0,1,.24.16c0,.12-.08.23-.36.3-1.38.33-3,.62-3.09.65s-1.7.51-2.46.7c-.25.06-.4,0-.43-.11a.22.22,0,0,1,.16-.26,3.62,3.62,0,0,0,.74-.31c.46-.24.43-.73.39-1.5a53.06,53.06,0,0,0-.91-5.51l-.86-4.47c-.75-3.93-.89-4.64-1.1-5.43s-.45-1.23-1.31-1.14a8.14,8.14,0,0,0-.88.16.24.24,0,0,1-.24-.16c0-.15.07-.24.37-.31,1.16-.29,2.79-.63,2.94-.66s1.73-.48,2.51-.67c.29-.07.42,0,.44.11a.27.27,0,0,1-.16.26,2.91,2.91,0,0,0-.63.21c-.67.31-.75.72-.63,1.62s.27,1.59,1,5.52l.1.54c0,.15.09.13.17.11,4.21-1,6.31-1.5,10.53-2.43.09,0,.14,0,.12-.18l-.09-.54c-.68-3.95-.83-4.73-1-5.52s-.39-1.25-1.26-1.18a8.22,8.22,0,0,0-.88.13.21.21,0,0,1-.24-.17c0-.15.08-.23.37-.3,1.13-.25,2.8-.56,2.92-.58s1.76-.44,2.52-.6c.29-.06.45,0,.47.12a.27.27,0,0,1-.2.26,3,3,0,0,0-.63.2c-.64.29-.72.69-.63,1.59s.2,1.54.86,5.49Z"/><path class="cls-2" d="M137.57,376c-.62-4-.73-4.68-.91-5.48s-.41-1.25-1.27-1.2a8.16,8.16,0,0,0-.88.12.24.24,0,0,1-.24-.17c0-.15.08-.23.37-.29,1.17-.24,2.84-.51,3-.54s5.55-1,6.13-1.17a9.48,9.48,0,0,0,1.15-.36c.11,0,.22-.16.33-.18s.13.1.15.22-.06.52,0,1.24c0,.24.11,1.4.09,1.71,0,.12-.08.29-.19.31s-.22-.09-.25-.29a2.78,2.78,0,0,0-.27-.88c-.23-.39-.52-.52-1.95-.44-.45,0-3.42.56-3.71.62-.12,0-.13.12-.1.3l1.06,6.93c0,.18,0,.27.19.24.32-.06,3.66-.7,4.23-.87s1-.27,1.19-.59.24-.38.33-.4.15,0,.18.19,0,.61,0,1.45c0,.51.1,1.49.12,1.67s0,.49-.16.52-.19-.06-.21-.21a2.91,2.91,0,0,0-.24-.82c-.15-.32-.42-.6-1.41-.54-.7,0-3.41.53-3.84.61a.16.16,0,0,0-.15.21l.33,2.13c.13.87.56,3.85.66,4.35.33,1.68.82,1.93,3.29,1.47a8,8,0,0,0,2.46-.74,2,2,0,0,0,.88-2c0-.31.06-.41.2-.44s.2.18.23.36a23.09,23.09,0,0,1,0,2.53c-.08.69-.33.74-1.3.92-1.87.35-3.34.58-4.35.73s-1.71.27-2.08.35c-.06,0-.54.11-1.07.24s-1,.27-1.44.35-.4,0-.43-.13a.21.21,0,0,1,.16-.25,6,6,0,0,0,.75-.27c.46-.17.45-.71.44-1.48a53.38,53.38,0,0,0-.72-5.55Z"/><path class="cls-2" d="M163.29,369.34c-.55-4.71-.66-5.56-.83-6.51s-.47-1.47-1.47-1.53a5.4,5.4,0,0,0-1,.06c-.12,0-.24,0-.26-.15s.12-.26.44-.31c1.32-.2,3.19-.39,3.33-.41.35-.05,2.2-.42,4-.67,2.92-.41,8.3-1.4,12.14,1.91a10.72,10.72,0,0,1,3.53,7.37,13.19,13.19,0,0,1-2.34,8.91,11.7,11.7,0,0,1-8.31,4.59c-1.22.17-2.75.29-4,.37s-2.24.14-2.39.17l-1.13.2c-.55.1-1.22.25-1.65.31s-.46,0-.48-.17,0-.19.21-.22a4.59,4.59,0,0,0,.84-.25c.55-.21.63-.9.63-1.78,0-1.28-.29-3.68-.63-6.58Zm2.81,2.9c.37,3.2.72,6,.8,6.55a7,7,0,0,0,.58,2.25c.44.52,1.62,1,5,.53a9.92,9.92,0,0,0,6.52-3.7c1.33-1.73,1.88-4.73,1.62-7.52a10.73,10.73,0,0,0-3.52-7.29c-3-2.65-6.45-2.64-10-2.14a8.11,8.11,0,0,0-1.89.49.59.59,0,0,0-.28.65c.1,1,.44,4.11.71,6.44Z"/><path class="cls-2" d="M189.16,368.18c-.32-4-.38-4.73-.51-5.54s-.31-1.28-1.17-1.32a8.09,8.09,0,0,0-.89,0,.25.25,0,0,1-.22-.19c0-.15.1-.22.39-.26,1.18-.13,2.85-.24,3-.25s5.59-.5,6.17-.59a9.3,9.3,0,0,0,1.17-.26c.11,0,.23-.14.34-.15s.13.11.13.23-.1.51-.12,1.23c0,.24,0,1.4,0,1.71,0,.12-.1.28-.22.3s-.21-.11-.23-.32a2.83,2.83,0,0,0-.21-.9c-.2-.41-.48-.57-1.9-.62-.44,0-3.44.24-3.73.26-.12,0-.14.11-.13.29l.54,7c0,.18,0,.27.17.26.32,0,3.69-.35,4.26-.46s1-.18,1.22-.48.27-.36.35-.37.15,0,.16.2-.09.61-.11,1.45c0,.51,0,1.5,0,1.68s0,.49-.2.51-.18-.08-.19-.23a3,3,0,0,0-.18-.84c-.12-.33-.37-.64-1.36-.67-.7,0-3.43.2-3.87.25a.16.16,0,0,0-.16.2l.17,2.16c.07.88.28,3.89.34,4.4.21,1.7.68,2,3.17,1.77a7.88,7.88,0,0,0,2.5-.5,2,2,0,0,0,1-1.89c0-.31.09-.41.23-.42s.19.2.2.38a23.11,23.11,0,0,1-.18,2.52c-.13.68-.38.7-1.36.79-1.89.17-3.36.26-4.38.32s-1.72.11-2.09.15c-.06,0-.54.05-1.08.14s-1.05.17-1.45.21-.4,0-.42-.17a.21.21,0,0,1,.18-.23,5.84,5.84,0,0,0,.76-.2c.47-.13.5-.67.55-1.43a53.81,53.81,0,0,0-.31-5.59Z"/><path class="cls-2" d="M205.18,366.76c-.23-4-.28-4.74-.38-5.56s-.28-1.29-1.14-1.35a8.06,8.06,0,0,0-.89,0,.25.25,0,0,1-.22-.2c0-.15.11-.22.4-.24,1.18-.09,2.8-.15,3-.16.56,0,2.5-.23,3.68-.31,3.33-.22,4.56.79,5,1.16a4.34,4.34,0,0,1,1.42,3c.16,3.71-2.41,6.31-6.33,6.57l-.73,0c-.1,0-.27-.1-.27-.22s.13-.29.65-.32c2.76-.18,4.65-2.12,4.54-4.46a5.36,5.36,0,0,0-1.64-3.84,4.28,4.28,0,0,0-3.56-1,8.88,8.88,0,0,0-1.43.28c-.14,0-.19.23-.18.5l.57,10.52c.14,2.49.25,4.53.42,5.58.13.76.3,1.23,1.08,1.3a9.62,9.62,0,0,0,1.12,0,.2.2,0,0,1,.21.2c0,.12-.1.22-.39.24-1.37.09-3,.12-3.15.13s-1.71.22-2.49.27c-.26,0-.4,0-.41-.18a.21.21,0,0,1,.19-.23,3.5,3.5,0,0,0,.77-.18c.48-.16.52-.65.58-1.42a53.9,53.9,0,0,0-.18-5.6Z"/><path class="cls-2" d="M224.75,358.69c.3-.87.41-1,.59-1s.36.35.64.92c.5,1.08,4.88,11.64,6.51,15.53,1,2.29,1.66,2.62,2.2,2.79a3.3,3.3,0,0,0,1,.13c.14,0,.32.05.32.21s-.28.22-.57.22-2.26.07-4,0c-.48,0-.89,0-.89-.16s.06-.13.17-.19a.5.5,0,0,0,.21-.71c-1-2.35-1.44-3.52-2.41-5.87-.06-.12-.09-.15-.24-.15-2.35.07-3.53.12-5.88.22-.12,0-.2.07-.25.23-.52,1.68-.78,2.52-1.3,4.2a5.65,5.65,0,0,0-.31,1.75c0,.52.45.68.88.66h.23c.2,0,.26.08.27.2s-.14.22-.36.23c-.6,0-2,0-2.27,0s-1.52.17-2.55.22c-.32,0-.49,0-.5-.19a.23.23,0,0,1,.22-.23,6.83,6.83,0,0,0,.74-.1c1.14-.21,1.59-1.15,2-2.48C221.41,368.55,222.51,365.26,224.75,358.69Zm3.16,10.68c.12,0,.12-.06.08-.18-1.08-2.81-1.63-4.21-2.73-7q-.24-.59-.44,0c-.88,2.87-1.31,4.31-2.17,7.19q0,.18.09.18Z"/><path class="cls-2" d="M239.24,365.31c0-4,0-4.75-.11-5.57s-.22-1.31-1.07-1.42a8,8,0,0,0-.88,0,.25.25,0,0,1-.21-.21c0-.15.12-.21.41-.22,1.18,0,2.92,0,3.07,0s2.45-.08,3.24-.08a8.16,8.16,0,0,1,4.83,1.13,4.58,4.58,0,0,1,1.77,3.55c0,1.92-.79,3.76-3.18,5.89,2.09,2.75,3.83,5.12,5.28,6.74a4.69,4.69,0,0,0,2.79,1.84,5.56,5.56,0,0,0,.89.11.23.23,0,0,1,.23.22c0,.15-.15.21-.6.2l-1.58,0a4.88,4.88,0,0,1-2.69-.55c-1.09-.62-2-1.9-3.43-3.83-1-1.4-2.19-3.08-2.74-3.78a.38.38,0,0,0-.35-.15l-3.25,0c-.12,0-.17.06-.17.22v.61c0,2.5,0,4.51.15,5.57.09.76.25,1.24,1,1.36a9.61,9.61,0,0,0,1.12.12c.17,0,.2.12.2.21s-.11.21-.4.21c-1.38,0-3-.07-3.1-.07s-1.72.11-2.49.12c-.26,0-.4-.05-.4-.21a.2.2,0,0,1,.2-.22,3.45,3.45,0,0,0,.77-.13c.49-.13.55-.62.65-1.38a53.91,53.91,0,0,0,.09-5.6Zm2.23,2.17a.39.39,0,0,0,.18.33,8.43,8.43,0,0,0,2.82.38,3.21,3.21,0,0,0,1.92-.46c.87-.61,1.55-2,1.55-4,0-3.23-1.69-5.1-4.46-5.09a8.69,8.69,0,0,0-1.85.16.32.32,0,0,0-.2.31Z"/><path class="cls-2" d="M263,370.11c-.06,2.5-.11,4.54,0,5.6.07.77.18,1.25.94,1.4a10.05,10.05,0,0,0,1.14.16.19.19,0,0,1,.19.22c0,.12-.12.21-.41.2-1.38,0-3-.19-3.12-.19s-1.87,0-2.61,0c-.29,0-.4-.07-.4-.22a.18.18,0,0,1,.2-.18,3.22,3.22,0,0,0,.75-.1c.52-.11.67-.62.78-1.38.14-1.06.18-3.1.23-5.6l.23-10.87-3.74,0c-1.62,0-2.24.17-2.63.77a3.47,3.47,0,0,0-.42.82c-.07.19-.15.24-.27.24a.2.2,0,0,1-.17-.21c0-.28.54-2.61.59-2.79s.18-.48.27-.48a8.52,8.52,0,0,0,1.15.33c.73.11,1.74.15,2,.16,3.91.08,5.87.14,9.78.3a12.58,12.58,0,0,0,1.86,0c.38,0,.62-.09.74-.09s.11.16.11.31c0,.79-.18,2.65-.19,2.95s-.13.33-.25.33-.17-.1-.19-.47l0-.27c-.06-.8-.6-1.4-3.07-1.56l-3.23-.18Z"/><path class="cls-2" d="M293.44,376.11c0,.92.1,2.34,1.1,2.79a5,5,0,0,0,1.61.39.18.18,0,0,1,.19.2c0,.15-.25.22-.53.19-.57-.05-3.37-.36-4.28-.53-.6-.11-.71-.21-.7-.34a.21.21,0,0,1,.19-.2c.14,0,.2-.41.17-.9-.14-5.27-.21-7.9-.37-13.16h-.06c-2.82,5.07-4.2,7.62-6.92,12.72-.58,1.09-.73,1.32-1,1.31s-.36-.27-.8-1.24c-.59-1.32-2.09-4.75-2.66-6.19-.67-1.69-2.54-6.16-2.93-7.25h-.12c-.6,4.65-.9,7-1.49,11.63,0,.39-.07.88-.08,1.31a.73.73,0,0,0,.57.76,4.44,4.44,0,0,0,1,.21.23.23,0,0,1,.19.2c0,.18-.18.23-.47.22-.94-.05-2.14-.21-2.34-.22s-1.44,0-2.12,0c-.26,0-.43-.08-.42-.26s.12-.18.26-.17a4.29,4.29,0,0,0,.75-.05c.83-.1.9-1.05,1.06-2,1-6.72,1.52-10.08,2.56-16.79,0-.27.17-.45.31-.44a.6.6,0,0,1,.51.43c2.85,6.6,4.24,9.91,7,16.55,3.3-6.2,5-9.29,8.41-15.45.13-.23.26-.41.44-.39s.31.24.34.73C293.06,366.51,293.19,369.71,293.44,376.11Z"/><path class="cls-2" d="M301.74,368.13c.32-4,.38-4.73.39-5.56s-.1-1.33-.94-1.53a8.08,8.08,0,0,0-.88-.15.26.26,0,0,1-.19-.23c0-.15.13-.2.43-.17,1.18.12,2.85.35,3,.37s5.58.64,6.17.68a9.22,9.22,0,0,0,1.19,0c.11,0,.25-.09.36-.08s.11.13.1.26-.18.48-.32,1.19c0,.23-.22,1.38-.3,1.68,0,.12-.14.26-.26.25s-.19-.15-.17-.36a2.88,2.88,0,0,0-.06-.93c-.13-.44-.38-.66-1.77-1-.43-.11-3.42-.47-3.72-.5-.12,0-.15.07-.17.26l-.58,7c0,.18,0,.27.12.29.32,0,3.68.41,4.27.41s1,0,1.28-.22.32-.3.41-.29.14.08.13.23-.18.58-.33,1.4c-.09.5-.25,1.47-.27,1.65s-.1.48-.28.46-.17-.11-.15-.26a3,3,0,0,0,0-.86c-.07-.35-.26-.7-1.23-.94-.68-.17-3.41-.5-3.84-.55-.15,0-.18.07-.19.16l-.18,2.15c-.07.88-.35,3.88-.37,4.4-.07,1.72.34,2.11,2.83,2.39a7.8,7.8,0,0,0,2.54,0c.68-.21,1.07-.64,1.31-1.65.09-.3.15-.38.29-.36s.15.23.13.42a22.63,22.63,0,0,1-.57,2.44c-.23.64-.49.61-1.46.5-1.88-.22-3.35-.43-4.36-.58s-1.71-.24-2.08-.28c-.06,0-.54-.06-1.09-.08s-1.06,0-1.46-.09-.39-.1-.38-.25a.2.2,0,0,1,.22-.19,5.73,5.73,0,0,0,.78,0c.48,0,.6-.56.77-1.3a53.58,53.58,0,0,0,.59-5.57Z"/><path class="cls-2" d="M317.92,378.65c-.16,2.12,0,2.79.66,3.06a5.88,5.88,0,0,0,1.24.32.21.21,0,0,1,.18.24c0,.15-.19.19-.48.15-1.43-.2-2.41-.42-2.64-.45s-1.29-.08-2.43-.23c-.26,0-.4-.08-.38-.26a.2.2,0,0,1,.22-.19,4.13,4.13,0,0,0,1,0c.63-.11.8-.79,1-3.12l1.51-14.74c.11-1,.28-1.28.49-1.26s.68.61.92.92c.37.48,3.69,5.09,7.13,9.91,2.2,3.09,4.52,6.56,5.19,7.53.54-5.16.81-7.74,1.34-12.89.18-1.66.1-2.26-.67-2.54a8.18,8.18,0,0,0-1.24-.32.22.22,0,0,1-.18-.27c0-.15.23-.15.52-.1,1.17.18,2.39.44,2.69.49s1.15.12,2.2.3c.26,0,.46.11.44.26a.28.28,0,0,1-.32.19,2.86,2.86,0,0,0-.62,0c-.87,0-1,.54-1.19,2.08l-2,15c-.21,1.69-.26,1.84-.43,1.81s-.48-.3-1.71-1.88c-.23-.28-3.4-4.62-5.74-7.94-2.57-3.65-5.12-7.2-5.82-8.21C318.51,371.35,318.31,373.78,317.92,378.65Z"/><path class="cls-2" d="M346.73,379.25c-.36,2.46-.66,4.48-.7,5.55,0,.77,0,1.27.77,1.53a10.32,10.32,0,0,0,1.12.34.2.2,0,0,1,.17.25c0,.12-.15.19-.43.13-1.36-.26-2.94-.65-3.08-.67s-1.86-.25-2.6-.38c-.28-.05-.39-.13-.37-.28a.17.17,0,0,1,.22-.15,3.2,3.2,0,0,0,.76,0c.53,0,.75-.51.94-1.25.27-1,.55-3,.9-5.51L346,368.09l-3.71-.6c-1.61-.25-2.24-.17-2.7.36a3.31,3.31,0,0,0-.52.74c-.1.17-.18.21-.3.19a.21.21,0,0,1-.15-.24c0-.27.85-2.5.92-2.68s.24-.45.33-.44a8.88,8.88,0,0,0,1.1.5c.72.22,1.71.42,2,.47,3.88.69,5.82,1,9.69,1.8a12.68,12.68,0,0,0,1.85.24c.39,0,.63,0,.75,0s.09.17.07.32c-.12.78-.5,2.59-.54,2.89s-.17.31-.28.28-.16-.12-.13-.49v-.27c0-.8-.43-1.48-2.86-2l-3.19-.67Z"/><path class="cls-2" d="M377.38,373.18c5.74,1.39,9.34,6.13,8.14,12-1.15,5.64-6.06,9.24-12,7.8-6.79-1.64-8.76-7.66-8-12.24A9.43,9.43,0,0,1,377.38,373.18Zm-3,18.93c2.23.54,7,.43,8.42-6.88,1.22-6.06-1.73-10.16-5.76-11.14-4.26-1-7.82,1-8.81,6.55C367.2,386.56,369.9,391,374.39,392.12Z"/><path class="cls-2" d="M391.14,384.78c.83-3.91,1-4.62,1.09-5.43s.07-1.33-.74-1.67a8.42,8.42,0,0,0-.85-.29.27.27,0,0,1-.16-.26c0-.15.16-.18.45-.1,1.15.31,2.73.8,2.87.84.49.13,6,1.71,6.57,1.85a5.26,5.26,0,0,0,1.18.21c.15,0,.29-.07.38,0a.22.22,0,0,1,.12.28c0,.18-.22.44-.47,1.12-.08.23-.36,1.34-.49,1.62-.06.11-.18.23-.29.2s-.17-.18-.13-.35a3,3,0,0,0,0-1,2.09,2.09,0,0,0-1.56-1.23L395,379.28c-.14,0-.21,0-.26.21l-1.48,6.86c0,.15-.05.24.12.29l3.42.93c.43.12.8.23,1.14.29.61.11,1,.12,1.27-.11s.29-.2.37-.18.12.13.09.25-.29.53-.54,1.32c-.16.48-.42,1.48-.46,1.66s-.17.49-.34.44-.14-.17-.12-.28a3.75,3.75,0,0,0,0-1c0-.37-.36-.83-1.1-1.16s-3.57-1.07-4-1.18c-.14,0-.18,0-.22.19l-.44,2c-.54,2.48-1,4.47-1.06,5.47-.08.76,0,1.28.61,1.58a10,10,0,0,0,1.1.43.22.22,0,0,1,.15.26c0,.12-.16.17-.44.1-1.37-.39-3-.91-3.07-.94s-1.7-.37-2.46-.58c-.25-.07-.38-.16-.35-.31a.19.19,0,0,1,.24-.16,5.77,5.77,0,0,0,.78.09c.48.05.67-.45.93-1.16a52.28,52.28,0,0,0,1.3-5.41Z"/><path class="cls-2" d="M116.42,427.48a11.73,11.73,0,0,1-5.05-7.93,13.1,13.1,0,0,1,1.4-8.9c1.29-2.21,3.53-4.26,7.78-5.28a21.64,21.64,0,0,1,4.08-.59,27.47,27.47,0,0,0,2.9-.2c.3,0,.39.07.42.24s0,.62.16,1.71.41,2.64.46,3.09,0,.65-.14.69-.26-.16-.33-.58a4.17,4.17,0,0,0-1.7-2.78,8.57,8.57,0,0,0-5.83-.4c-3.67.89-5.15,2.49-5.91,3.74-1.59,2.59-1.51,5.36-.9,8.38,1.15,5.67,6.12,9.83,11.85,8.46,2-.48,3.54-1.11,4.39-2.58a6.47,6.47,0,0,0,.55-2.74c0-.34,0-.47.19-.51s.23.16.27.41a33.57,33.57,0,0,1,.09,4,1.07,1.07,0,0,1-.54,1,15.18,15.18,0,0,1-4.69,1.81C121.86,429.46,119,429,116.42,427.48Z"/><path class="cls-2" d="M141,404.41c5.48-1.1,10.15,1.79,11,7.74.81,5.71-2.3,11.11-8,12.26-6.46,1.3-10.15-3.46-10.94-8C132.33,412.28,134.25,405.77,141,404.41Zm3.52,18.82c2.12-.43,6.21-2.51,5.13-9.9-.9-6.13-4.8-8.71-8.64-7.93-4.06.82-6.52,4.21-5.58,9.75C136.4,421.07,140.21,424.09,144.48,423.23Z"/><path class="cls-2" d="M176.25,415.24c.18.9.49,2.28,1.5,2.5a4.49,4.49,0,0,0,1.57,0,.17.17,0,0,1,.21.16c0,.15-.19.27-.46.3-.54.07-3.19.37-4.07.4-.57,0-.69-.06-.7-.18a.22.22,0,0,1,.14-.23c.13-.05.12-.45,0-.92-1-5.14-1.54-7.7-2.58-12.84h-.05c-1.76,5.58-2.61,8.37-4.27,14-.35,1.19-.46,1.45-.67,1.49s-.38-.19-1-1c-.78-1.17-2.76-4.21-3.54-5.5-.91-1.51-3.42-5.5-4-6.48l-.11,0c.24,4.69.36,7,.61,11.73,0,.4.09.88.15,1.3a.68.68,0,0,0,.66.63,4,4,0,0,0,.94,0,.21.21,0,0,1,.21.15c0,.18-.13.27-.4.31-.89.15-2,.25-2.22.29s-1.33.32-2,.44c-.24,0-.41,0-.44-.17s.08-.2.22-.23a4,4,0,0,0,.69-.21c.75-.28.66-1.22.64-2.21-.22-6.8-.31-10.21-.5-17,0-.27.08-.48.22-.5a.54.54,0,0,1,.55.31c3.79,5.87,5.65,8.81,9.3,14.74,2-6.79,3-10.18,5.19-17,.08-.26.18-.45.34-.48s.33.17.44.65C174.26,405.9,174.93,409,176.25,415.24Z"/><path class="cls-2" d="M182.6,405.62c-.38-4-.45-4.72-.58-5.53s-.32-1.28-1.14-1.3a7.28,7.28,0,0,0-.84,0,.24.24,0,0,1-.22-.19c0-.15.09-.22.37-.26,1.11-.14,2.65-.26,2.84-.29.53-.06,2.36-.34,3.48-.46,3.15-.36,4.36.6,4.8.95a4.4,4.4,0,0,1,1.47,3,6.1,6.1,0,0,1-5.74,6.83l-.69,0a.29.29,0,0,1-.27-.21c0-.21.11-.29.61-.35a4.38,4.38,0,0,0,4.13-4.65,5.48,5.48,0,0,0-1.71-3.76,3.91,3.91,0,0,0-3.42-.87,7.75,7.75,0,0,0-1.35.34c-.14,0-.18.24-.15.51l1,10.48c.23,2.48.41,4.51.62,5.56.15.75.34,1.21,1.07,1.25a8.61,8.61,0,0,0,1.07,0,.19.19,0,0,1,.21.19c0,.12-.09.22-.36.25-1.3.15-2.87.24-3,.26s-1.61.29-2.34.38c-.24,0-.38,0-.4-.16a.21.21,0,0,1,.17-.24,3.19,3.19,0,0,0,.72-.21c.45-.18.46-.67.49-1.44,0-1.07-.16-3.1-.39-5.59Z"/><path class="cls-2" d="M197.51,404c-.29-4-.34-4.73-.46-5.55s-.29-1.29-1.11-1.33a7.26,7.26,0,0,0-.84,0,.24.24,0,0,1-.21-.2c0-.15.1-.22.37-.25,1.12-.11,2.6-.18,2.82-.2s1.75-.22,2.48-.28c.28,0,.42,0,.43.18a.25.25,0,0,1-.21.23,2.76,2.76,0,0,0-.61.11c-.63.18-.74.64-.74,1.5s.05,1.55.33,5.56l.25,3.62c.26,3.73,1.11,5.22,2.2,6.16a4.37,4.37,0,0,0,3.65,1.11,4.84,4.84,0,0,0,3.59-2.1c1-1.57,1.17-3.71,1-6.36l-.17-3.25c-.21-4-.28-4.74-.35-5.56s-.24-1.3-1.05-1.36a7.27,7.27,0,0,0-.84,0,.22.22,0,0,1-.21-.2c0-.15.1-.22.38-.24,1.09-.08,2.52-.11,2.66-.12s1.34-.15,2.06-.19c.28,0,.39,0,.4.19a.22.22,0,0,1-.19.23,2.66,2.66,0,0,0-.61.1c-.66.19-.78.63-.79,1.48s.05,1.55.25,5.57l.14,2.77c.14,2.8,0,5.95-1.84,7.9a7.74,7.74,0,0,1-10,.85c-1.25-1.11-2.31-2.82-2.58-6.58Z"/><path class="cls-2" d="M224.4,406.81c.08,2.5.15,4.53.29,5.6.11.76.24,1.24,1,1.33a9,9,0,0,0,1.09.08c.16,0,.19.12.2.21s-.1.22-.37.23c-1.3,0-2.83,0-3,0s-1.76.17-2.47.2c-.27,0-.38,0-.39-.19a.18.18,0,0,1,.18-.19,2.92,2.92,0,0,0,.7-.15c.48-.14.6-.67.66-1.43.07-1.07,0-3.11-.09-5.6L221.82,396l-3.54.24c-1.53.11-2.11.33-2.45,1a3.6,3.6,0,0,0-.35.84c-.06.19-.13.25-.24.26a.19.19,0,0,1-.18-.2c0-.27.37-2.64.4-2.83s.15-.5.23-.5a7.68,7.68,0,0,0,1.1.24,18.8,18.8,0,0,0,1.93,0c3.71-.19,5.57-.27,9.28-.39a11.24,11.24,0,0,0,1.76-.18c.36-.07.58-.14.7-.14s.12.15.12.3c0,.79,0,2.65,0,3s-.1.34-.21.34-.17-.09-.2-.45l0-.27c-.1-.79-.64-1.36-3-1.34l-3.07.05Z"/><path class="cls-2" d="M235.8,401.89c-.06-4-.07-4.75-.14-5.57s-.22-1.31-1-1.41a7.22,7.22,0,0,0-.84,0,.25.25,0,0,1-.2-.21c0-.15.11-.21.39-.22,1.12,0,2.71,0,2.85,0s5.32,0,5.87-.07a8.3,8.3,0,0,0,1.12-.16c.11,0,.22-.12.33-.12s.11.12.11.24-.13.5-.19,1.22c0,.24-.08,1.4-.14,1.71,0,.12-.11.28-.22.28s-.2-.12-.2-.34a3,3,0,0,0-.14-.91c-.16-.42-.42-.61-1.76-.78-.42-.06-3.27-.06-3.55-.05-.11,0-.14.09-.14.28l.08,7c0,.18,0,.28.14.27.3,0,3.51,0,4.06-.1s.94-.1,1.19-.37.27-.34.36-.34.14.06.14.21-.12.6-.19,1.43c0,.51-.1,1.49-.1,1.67s-.05.49-.22.49-.17-.09-.17-.24a3.14,3.14,0,0,0-.11-.85c-.1-.34-.31-.67-1.24-.79-.66-.08-3.25-.09-3.67-.08-.14,0-.16.09-.16.18l0,2.16c0,.88,0,3.9.05,4.42.09,1.72.51,2.06,2.88,2a7,7,0,0,0,2.39-.29c.62-.29.95-.77,1.08-1.8.06-.31.11-.4.25-.4s.16.21.16.4a24.26,24.26,0,0,1-.32,2.5c-.16.67-.41.67-1.33.67-1.79,0-3.19,0-4.15-.05s-1.63,0-2,0c-.05,0-.52,0-1,0s-1,.08-1.38.09-.38-.05-.38-.2a.2.2,0,0,1,.19-.22,5.11,5.11,0,0,0,.73-.14c.45-.09.51-.62.6-1.38.13-1.06.09-3.11.05-5.61Z"/><path class="cls-2" d="M251,401.83c0-4,0-4.75,0-5.57s-.19-1.31-1-1.44a7.21,7.21,0,0,0-.84-.07.25.25,0,0,1-.19-.22c0-.15.11-.21.39-.21,1.12,0,2.77.09,2.91.09s2.32,0,3.08,0a7.45,7.45,0,0,1,4.56,1.23,4.68,4.68,0,0,1,1.62,3.58c0,1.92-.82,3.75-3.11,5.83,1.93,2.79,3.54,5.2,4.88,6.85a4.44,4.44,0,0,0,2.61,1.9,5,5,0,0,0,.84.12.23.23,0,0,1,.21.22c0,.15-.14.21-.58.19l-1.49-.06a4.44,4.44,0,0,1-2.54-.61c-1-.64-1.85-1.94-3.18-3.9-1-1.42-2-3.13-2.53-3.84a.35.35,0,0,0-.33-.16l-3.08-.11c-.11,0-.17.06-.17.21v.61c0,2.5-.05,4.51,0,5.57.07.76.21,1.25.94,1.39a8.7,8.7,0,0,0,1.06.14c.16,0,.19.13.19.22s-.11.21-.38.2c-1.3,0-2.82-.13-2.93-.14s-1.63.07-2.36.07c-.24,0-.38-.06-.38-.21a.2.2,0,0,1,.19-.21,3.12,3.12,0,0,0,.73-.12c.46-.12.53-.61.64-1.37.15-1.05.16-3.1.18-5.6Zm2.08,2.22a.4.4,0,0,0,.16.34,7.62,7.62,0,0,0,2.67.44,2.91,2.91,0,0,0,1.82-.42c.84-.59,1.5-1.94,1.54-3.92.07-3.23-1.52-5.13-4.14-5.18a7.91,7.91,0,0,0-1.76.12.32.32,0,0,0-.2.3Z"/><path class="cls-2" d="M276.88,414.45c-.37-.23-.39-.36-.35-1.18.07-1.52.23-2.74.29-3.22,0-.33.1-.48.24-.47s.19.11.18.35a6,6,0,0,0,0,1.13,4,4,0,0,0,8-.39c.13-2.1-.59-3.38-2.84-5.7l-1.18-1.21c-2.78-2.85-3.37-4.76-3.27-6.83.16-3.25,2.51-5.34,6.08-5.08a10.52,10.52,0,0,1,2.59.5,3.94,3.94,0,0,0,1,.23c.22,0,.28.08.27.23s-.18,1.15-.31,3.21c0,.49-.1.7-.24.69s-.19-.17-.2-.41a6.05,6.05,0,0,0-.27-1.55c-.15-.35-.83-1.69-3.4-1.88a3.25,3.25,0,0,0-3.63,3.29c-.09,1.73.59,2.87,3.12,5.34l.74.72c3.1,3.07,3.74,5,3.59,7.45a6,6,0,0,1-6.79,5.84A7.64,7.64,0,0,1,276.88,414.45Z"/><path class="cls-2" d="M293.78,413.71a10.61,10.61,0,0,1-2.38-7.92,10.45,10.45,0,0,1,3.24-6.79c1.59-1.41,3.91-2.42,7.68-2a20.58,20.58,0,0,1,3.54.7,16.59,16.59,0,0,0,2.47.69c.25,0,.29.16.28.31s-.12.52-.25,1.44-.24,2.27-.3,2.63-.19.53-.33.51-.18-.21-.14-.57a3.68,3.68,0,0,0-.79-2.7,7.77,7.77,0,0,0-4.69-2c-3.15-.34-4.72.43-5.65,1.23-1.95,1.65-2.49,3.92-2.68,6.53-.36,4.95,2.82,9.66,7.91,10.22,1.79.2,3,.18,4-.76a5.08,5.08,0,0,0,1.12-2c.07-.26.11-.35.28-.33s.2.21.18.39a29.79,29.79,0,0,1-.88,3.23c-.18.47-.24.55-.67.69a12.92,12.92,0,0,1-4.35.09C297.86,416.88,295.52,415.7,293.78,413.71Z"/><path class="cls-2" d="M315.51,411.1c-.26,2.48-.48,4.51-.48,5.58,0,.77,0,1.26.72,1.48a9.08,9.08,0,0,0,1.07.27.21.21,0,0,1,.17.24c0,.12-.13.19-.4.16-1.32-.18-2.85-.48-3-.5s-1.63-.12-2.36-.22c-.24,0-.37-.11-.36-.26a.19.19,0,0,1,.21-.19,3.09,3.09,0,0,0,.74,0c.47-.06.6-.54.76-1.28.22-1,.45-3.07.71-5.55l.47-4.54c.41-4,.48-4.72.51-5.54s-.12-1.31-.63-1.49a4,4,0,0,0-.74-.19.23.23,0,0,1-.17-.24c0-.15.13-.2.41-.16.81.1,2.33.37,2.47.38s1.7.17,2.45.27c.28,0,.38.11.37.26a.24.24,0,0,1-.22.19,2.54,2.54,0,0,0-.62,0c-.68.06-.87.41-1,1.3s-.19,1.54-.62,5.53Z"/><path class="cls-2" d="M323.93,407.7c.47-4,.56-4.71.6-5.53s0-1.33-.83-1.57a7.36,7.36,0,0,0-.83-.18.26.26,0,0,1-.17-.24c0-.15.13-.19.41-.15,1.11.16,2.69.47,2.83.49s5.27.87,5.83.93a8.34,8.34,0,0,0,1.13,0c.11,0,.24-.08.35-.06s.1.14.08.26-.19.48-.35,1.17c-.05.23-.26,1.37-.36,1.66,0,.12-.15.25-.26.24s-.18-.16-.15-.36a3,3,0,0,0,0-.93c-.1-.45-.34-.67-1.64-1.07-.41-.13-3.23-.61-3.51-.65-.11,0-.15.07-.17.25l-.85,7c0,.18,0,.27.1.29.3,0,3.48.55,4,.58s.94.06,1.23-.17.32-.29.4-.27.13.08.11.24-.2.57-.38,1.38c-.11.49-.3,1.46-.32,1.64s-.12.47-.28.45-.15-.12-.13-.27a3.15,3.15,0,0,0,0-.86c-.05-.36-.22-.71-1.13-1-.64-.19-3.21-.64-3.62-.7-.14,0-.18.06-.19.15l-.26,2.14c-.11.88-.49,3.86-.53,4.38-.13,1.71.24,2.12,2.58,2.5a7,7,0,0,0,2.41.12c.65-.18,1-.6,1.31-1.6.09-.29.16-.37.3-.35s.13.24.11.42a23.67,23.67,0,0,1-.65,2.42c-.25.63-.49.59-1.41.44-1.78-.3-3.16-.56-4.11-.76s-1.61-.31-2-.37c-.05,0-.51-.08-1-.13s-1-.09-1.38-.15-.37-.12-.35-.27a.19.19,0,0,1,.21-.19,5.13,5.13,0,0,0,.74,0c.46,0,.59-.53.78-1.27.27-1,.5-3.06.79-5.53Z"/><path class="cls-2" d="M338.84,418.85c-.25,2.11-.12,2.79.5,3.09a5.35,5.35,0,0,0,1.16.37.21.21,0,0,1,.16.25c0,.15-.19.18-.46.13-1.34-.25-2.27-.51-2.49-.55s-1.22-.13-2.3-.32c-.24,0-.37-.1-.35-.28a.19.19,0,0,1,.22-.18,3.71,3.71,0,0,0,1,0c.61-.08.8-.75,1.12-3.07l2.06-14.65c.14-1,.32-1.27.52-1.23s.62.64.83,1c.33.49,3.28,5.23,6.34,10.17,2,3.17,4,6.72,4.59,7.72.74-5.12,1.11-7.69,1.84-12.81.24-1.65.2-2.25-.53-2.56a7.43,7.43,0,0,0-1.17-.36c-.17,0-.17-.19-.15-.28s.22-.14.5-.08c1.1.23,2.26.53,2.53.59s1.09.17,2.08.38c.25.05.44.12.41.27a.27.27,0,0,1-.32.18,2.59,2.59,0,0,0-.59-.06c-.83,0-1,.51-1.22,2l-2.52,14.9c-.28,1.68-.33,1.82-.49,1.79s-.44-.31-1.54-1.94c-.2-.29-3-4.74-5.11-8.15-2.29-3.75-4.56-7.38-5.17-8.42C339.71,411.58,339.42,414,338.84,418.85Z"/><path class="cls-2" d="M359.91,424.28a10.78,10.78,0,0,1-1.57-8.18,10.08,10.08,0,0,1,3.91-6.33c1.72-1.19,4.15-1.89,7.86-1a21.16,21.16,0,0,1,3.46,1.16,17.22,17.22,0,0,0,2.39,1c.24.07.28.19.25.34s-.17.5-.39,1.4-.47,2.22-.57,2.57-.24.5-.38.47-.15-.23-.08-.58a3.74,3.74,0,0,0-.51-2.78,8.09,8.09,0,0,0-4.48-2.57c-3.1-.75-4.75-.19-5.76.48-2.11,1.38-2.88,3.57-3.34,6.14-.86,4.87,1.84,10,6.86,11.19,1.76.43,3,.57,4.11-.23A4.88,4.88,0,0,0,373,425.5c.1-.25.15-.33.31-.29s.18.23.14.41a29,29,0,0,1-1.2,3.1c-.23.44-.3.52-.73.6a13.06,13.06,0,0,1-4.35-.48C363.65,428,361.45,426.49,359.91,424.28Z"/><path class="cls-2" d="M380.63,419.5c.81-3.91,1-4.63,1.07-5.44s.07-1.33-.7-1.65a7.48,7.48,0,0,0-.81-.28.27.27,0,0,1-.15-.26c0-.15.15-.18.43-.11,1.1.29,2.65.76,2.78.8s5.2,1.45,5.75,1.58a8.47,8.47,0,0,0,1.13.16c.11,0,.24-.06.35,0s.08.15.06.27-.23.45-.45,1.13c-.07.22-.38,1.33-.5,1.61-.05.11-.17.24-.28.21s-.16-.17-.12-.38a3,3,0,0,0,.06-.93c-.07-.46-.28-.71-1.55-1.25-.4-.17-3.18-1-3.45-1-.11,0-.16.05-.19.23L382.61,421c0,.18-.06.27.08.3.3.08,3.43.94,4,1s.94.17,1.24,0,.34-.25.42-.23.12.1.09.25-.25.55-.5,1.34c-.15.48-.43,1.42-.46,1.59s-.16.46-.32.41-.14-.13-.11-.28a3.12,3.12,0,0,0,.07-.86c0-.36-.16-.73-1-1.11-.63-.26-3.16-1-3.56-1.1-.13,0-.18,0-.2.13l-.44,2.11c-.18.86-.82,3.79-.91,4.3-.28,1.69.06,2.14,2.37,2.78a7.15,7.15,0,0,0,2.4.39c.66-.11,1.09-.48,1.45-1.44.12-.28.19-.35.33-.32s.11.25.07.43a22.67,22.67,0,0,1-.86,2.33c-.3.6-.54.54-1.44.28-1.75-.49-3.11-.91-4-1.21s-1.58-.49-1.93-.58c-.05,0-.51-.14-1-.24s-1-.2-1.37-.3-.36-.16-.33-.3a.19.19,0,0,1,.23-.16,5.18,5.18,0,0,0,.74.07c.46,0,.64-.46.89-1.17A55.26,55.26,0,0,0,379.7,424Z"/></svg>